# xmcd
# 
# Track frame offsets:
#     150
#     32113
#     44158
#     57605
#     76663
#     98869
#     121173
#     137621
#     153960
#     167219
#     194384
#     209512
#     223689
#     234015
# 
# Disc length: 3315
# 
# Revision: 2
# Processed by: cddbd v1.5.2PL0 Copyright (c) Steve Scherf et al.
# Submitted via: fre:ac v1.0.27
# 
DISCID=c20cf10e
DTITLE=Bill Frisell - Guitar in the Space Age
DYEAR=2014
DGENRE=Jazz
TTITLE0=Pipeline
TTITLE1=Turn, Turn,Turn
TTITLE2=Messin' with the Kid
TTITLE3=Surfer Girl
TTITLE4=Rumble
TTITLE5=The Shortest Day
TTITLE6=Rebel Rouser
TTITLE7=Baja
TTITLE8=Cannonball Rag
TTITLE9=Tired of Waiting for You
TTITLE10=Reflections from the Moon
TTITLE11=Bryant's Boogie
TTITLE12=Lift Off
TTITLE13=Telstar
EXTD=YEAR: 2014
EXTT0=
EXTT1=
EXTT2=
EXTT3=
EXTT4=
EXTT5=
EXTT6=
EXTT7=
EXTT8=
EXTT9=
EXTT10=
EXTT11=
EXTT12=
EXTT13=
PLAYORDER=
